<svg width="274" height="77" viewBox="0 0 274 77" fill="none" xmlns="http://www.w3.org/2000/svg">
<rect width="274" height="77" fill="#E5E5E5"/>
<rect x="0.75" y="0.75" width="272.5" height="75.5" rx="1.25" fill="white" stroke="black" stroke-width="1.5"/>
<path d="M58.216 58.048C57.096 59.328 55.064 60.336 52.12 61.072C49.176 61.84 45.496 62.272 41.08 62.368C40.664 62.368 40.024 62.336 39.16 62.272C38.296 62.208 37.4 62.128 36.472 62.032C35.576 61.936 34.728 61.84 33.928 61.744C33.128 61.648 32.584 61.552 32.296 61.456C28.808 60.496 26.472 58.864 25.288 56.56C25 56.08 24.808 55.632 24.712 55.216C24.616 54.832 24.584 54.384 24.616 53.872C24.648 53.488 24.696 53.216 24.76 53.056C24.792 52.896 24.888 52.64 25.048 52.288C25.304 51.808 25.608 51.424 25.96 51.136C26.312 50.816 26.824 50.48 27.496 50.128C28.232 49.776 28.664 49.632 28.792 49.696C29.048 49.792 29.208 50.032 29.272 50.416C29.368 50.768 29.336 51.104 29.176 51.424C29.112 51.616 28.888 51.824 28.504 52.048C28.12 52.304 27.784 52.576 27.496 52.864C27.208 53.152 27.048 53.376 27.016 53.536C26.984 53.792 27.224 54.16 27.736 54.64C28.248 55.12 28.84 55.536 29.512 55.888C31.016 56.624 32.776 57.28 34.792 57.856C36.808 58.464 38.92 58.944 41.128 59.296C42.12 59.456 43.128 59.568 44.152 59.632C45.208 59.728 46.232 59.776 47.224 59.776C48.248 59.776 49.208 59.744 50.104 59.68C51.032 59.616 51.864 59.504 52.6 59.344C56.216 58.576 58.152 57.168 58.408 55.12C58.696 53.072 57.288 50.528 54.184 47.488C53.384 46.72 52.472 45.92 51.448 45.088C50.424 44.256 49.24 43.392 47.896 42.496C46.584 41.568 45.08 40.608 43.384 39.616C41.72 38.592 39.832 37.488 37.72 36.304C36.344 35.504 35.176 34.832 34.216 34.288C33.288 33.712 32.488 33.216 31.816 32.8C31.144 32.384 30.584 32.016 30.136 31.696C29.688 31.376 29.256 31.04 28.84 30.688C27.112 29.216 26.072 27.728 25.72 26.224C25.624 25.872 25.576 25.6 25.576 25.408C25.576 25.184 25.608 24.816 25.672 24.304C25.704 24.048 25.736 23.84 25.768 23.68C25.8 23.52 25.832 23.376 25.864 23.248C25.896 23.12 25.944 22.992 26.008 22.864C26.072 22.704 26.168 22.512 26.296 22.288C26.648 21.616 27.16 20.928 27.832 20.224C28.536 19.488 29.32 18.816 30.184 18.208C30.568 17.952 31.048 17.664 31.624 17.344C32.2 16.992 32.808 16.656 33.448 16.336C34.088 16.016 34.744 15.712 35.416 15.424C36.088 15.104 36.696 14.848 37.24 14.656C39.8 13.664 42.424 12.896 45.112 12.352C47.8 11.808 50.328 11.504 52.696 11.44C53.176 11.408 53.704 11.408 54.28 11.44C54.856 11.472 55.416 11.536 55.96 11.632C56.536 11.696 57.064 11.776 57.544 11.872C58.056 11.968 58.472 12.08 58.792 12.208C60.712 12.88 61.912 13.856 62.392 15.136C62.552 15.488 62.6 15.904 62.536 16.384C62.504 16.864 62.408 17.296 62.248 17.68C62.056 18.096 61.736 18.528 61.288 18.976C60.872 19.424 60.408 19.824 59.896 20.176C59.256 20.592 58.52 20.992 57.688 21.376C56.856 21.728 56.008 22.032 55.144 22.288C54.312 22.512 53.48 22.688 52.648 22.816C51.848 22.912 51.16 22.928 50.584 22.864C50.072 22.8 49.72 22.72 49.528 22.624C49.336 22.496 49.16 22.272 49 21.952C48.904 21.728 48.872 21.456 48.904 21.136C48.936 20.784 49.016 20.512 49.144 20.32C49.304 20.064 49.496 19.92 49.72 19.888C49.976 19.856 50.376 19.888 50.92 19.984C51.912 20.144 52.984 20.144 54.136 19.984C55.32 19.824 56.424 19.568 57.448 19.216C58.504 18.864 59.384 18.432 60.088 17.92C60.792 17.408 61.176 16.88 61.24 16.336C61.272 15.984 61.144 15.632 60.856 15.28C60.568 14.896 60.152 14.56 59.608 14.272C59.096 13.952 58.472 13.68 57.736 13.456C57 13.2 56.216 13.024 55.384 12.928C54.04 12.768 52.552 12.752 50.92 12.88C49.288 13.008 47.592 13.248 45.832 13.6C44.104 13.952 42.36 14.416 40.6 14.992C38.872 15.536 37.224 16.16 35.656 16.864C34.088 17.536 32.648 18.272 31.336 19.072C30.056 19.872 29 20.688 28.168 21.52C26.44 23.248 26.024 24.992 26.92 26.752C27.208 27.296 27.576 27.824 28.024 28.336C28.472 28.848 29.08 29.408 29.848 30.016C30.648 30.592 31.64 31.248 32.824 31.984C34.04 32.72 35.512 33.568 37.24 34.528C44.088 38.368 49.32 41.84 52.936 44.944C56.552 48.048 58.648 50.832 59.224 53.296C59.288 53.712 59.32 54.016 59.32 54.208C59.352 54.432 59.336 54.768 59.272 55.216C59.208 55.824 59.08 56.32 58.888 56.704C58.728 57.12 58.456 57.536 58.072 57.952L58.216 58.048ZM75.4713 43.744C75.8233 43.488 75.9993 43.456 75.9993 43.648C75.9993 43.776 75.8233 43.984 75.4713 44.272C75.1513 44.528 74.7513 44.8 74.2713 45.088C73.8233 45.376 73.3273 45.648 72.7833 45.904C72.2713 46.16 71.8233 46.336 71.4393 46.432C71.1833 46.496 70.9753 46.544 70.8153 46.576C70.6873 46.576 70.4953 46.576 70.2393 46.576C69.8873 46.544 69.6153 46.496 69.4233 46.432C69.2633 46.368 69.0713 46.224 68.8473 46C68.4313 45.52 68.1753 44.816 68.0793 43.888L68.0312 43.312L67.6473 43.696C67.4553 43.92 67.1513 44.304 66.7353 44.848C66.3193 45.392 65.9033 45.968 65.4873 46.576C64.6553 47.728 63.9993 48.496 63.5193 48.88C63.0713 49.264 62.6393 49.376 62.2233 49.216C62.0633 49.152 61.9192 49.04 61.7912 48.88C61.6632 48.688 61.5512 48.496 61.4552 48.304C61.3912 48.144 61.3592 47.984 61.3592 47.824C61.3592 47.664 61.3592 47.328 61.3592 46.816C61.3592 46.304 61.3752 45.952 61.4072 45.76C61.4072 45.568 61.4552 45.28 61.5512 44.896C61.9032 43.552 62.3833 42.352 62.9913 41.296C63.6313 40.24 64.2713 39.536 64.9113 39.184C65.4233 38.96 65.9033 38.928 66.3513 39.088C66.7993 39.248 67.1513 39.568 67.4073 40.048C67.5033 40.272 67.5833 40.576 67.6473 40.96C67.7113 41.344 67.7433 41.696 67.7433 42.016V42.448L67.9353 42.4C68.0953 42.336 68.2393 42.352 68.3672 42.448C68.5273 42.512 68.6393 42.608 68.7033 42.736C68.7673 42.864 68.7993 43.008 68.7993 43.168C68.8313 43.296 68.8793 43.584 68.9433 44.032C69.0073 44.608 69.1033 45.04 69.2313 45.328C69.3593 45.584 69.5993 45.776 69.9513 45.904C70.1113 45.968 70.3513 45.984 70.6713 45.952C71.0233 45.888 71.3433 45.808 71.6313 45.712C71.8873 45.616 72.1913 45.488 72.5433 45.328C72.8953 45.168 73.2473 45.008 73.5993 44.848C73.9833 44.656 74.3353 44.464 74.6553 44.272C75.0073 44.08 75.2793 43.92 75.4713 43.792V43.744ZM66.7833 43.312L66.4953 42.88C66.4313 42.752 66.3353 42.592 66.2073 42.4C66.1113 42.208 66.0313 42.016 65.9673 41.824C65.8073 41.376 65.7113 41.152 65.6793 41.152C65.5833 41.184 65.4073 41.392 65.1513 41.776C64.9273 42.128 64.7033 42.496 64.4793 42.88C64.1273 43.552 63.8233 44.256 63.5673 44.992C63.3113 45.696 63.1193 46.336 62.9913 46.912C62.8953 47.36 62.8633 47.6 62.8953 47.632C62.9273 47.664 63.0873 47.536 63.3753 47.248C63.5353 47.088 63.7593 46.816 64.0473 46.432C64.3673 46.048 64.7033 45.664 65.0553 45.28C65.3753 44.928 65.6633 44.592 65.9193 44.272C66.2073 43.92 66.3993 43.696 66.4953 43.6L66.7833 43.312ZM89.9939 41.536C90.1859 41.536 90.2819 41.6 90.2819 41.728C90.3139 41.824 90.2339 41.904 90.0419 41.968C89.9779 42.032 89.7699 42.16 89.4179 42.352C89.0979 42.544 88.7619 42.768 88.4099 43.024C87.4819 43.664 86.7779 44.064 86.2979 44.224C85.8179 44.352 85.4019 44.32 85.0499 44.128C84.8579 44.032 84.6659 43.84 84.4739 43.552C84.2819 43.232 84.1539 42.896 84.0899 42.544C84.0579 42.384 84.0259 42.208 83.9939 42.016C83.9619 41.824 83.9139 41.648 83.8499 41.488C83.7859 41.136 83.6899 40.96 83.5619 40.96C83.3379 40.96 82.9539 41.184 82.4099 41.632C81.8659 42.08 81.2259 42.672 80.4899 43.408C79.7859 44.144 79.0339 44.992 78.2339 45.952C77.4339 46.88 76.6819 47.824 75.9779 48.784C75.6259 49.232 75.2899 49.68 74.9699 50.128C74.6819 50.576 74.4739 50.88 74.3459 51.04C74.1219 51.328 73.8979 51.568 73.6739 51.76C73.4499 51.952 73.2579 52.048 73.0979 52.048C73.0659 52.048 72.9219 51.984 72.6659 51.856C72.4739 51.792 72.3299 51.632 72.2339 51.376C72.1699 51.248 72.1379 51.104 72.1379 50.944C72.1379 50.784 72.2019 50.528 72.3299 50.176C72.4259 49.824 72.6019 49.328 72.8579 48.688C73.1139 48.048 73.4819 47.152 73.9619 46C74.1859 45.488 74.4259 44.912 74.6819 44.272C74.9379 43.6 75.1459 43.056 75.3059 42.64C75.6259 41.776 75.8659 41.184 76.0259 40.864C76.1859 40.512 76.3779 40.256 76.6019 40.096C77.0179 39.84 77.4179 39.904 77.8019 40.288C77.8979 40.384 77.9619 40.48 77.9939 40.576C78.0259 40.672 78.0419 40.848 78.0419 41.104C78.0419 41.264 78.0259 41.456 77.9939 41.68C77.9619 41.872 77.8819 42.128 77.7539 42.448C77.6579 42.736 77.5139 43.104 77.3219 43.552C77.1619 44 76.9379 44.56 76.6499 45.232C76.5219 45.488 76.4099 45.744 76.3139 46C76.2499 46.224 76.1859 46.416 76.1219 46.576C76.0259 46.768 75.9459 46.96 75.8819 47.152C75.9459 47.056 76.0419 46.944 76.1699 46.816C76.2659 46.72 76.3619 46.592 76.4579 46.432C76.5539 46.272 76.6819 46.112 76.8419 45.952C78.5379 43.84 79.9299 42.288 81.0179 41.296C82.1379 40.304 83.0179 39.808 83.6579 39.808C84.1059 39.808 84.4259 39.968 84.6179 40.288C84.8419 40.608 85.0179 41.184 85.1459 42.016C85.2419 42.624 85.3219 43.024 85.3859 43.216C85.4819 43.376 85.6419 43.44 85.8659 43.408C85.9619 43.376 86.1379 43.312 86.3939 43.216C86.6819 43.088 86.9539 42.944 87.2099 42.784C87.9139 42.4 88.5219 42.096 89.0339 41.872C89.5459 41.648 89.8819 41.552 90.0419 41.584L89.9939 41.536ZM102.471 43.744C102.823 43.488 102.999 43.456 102.999 43.648C102.999 43.776 102.823 43.984 102.471 44.272C102.151 44.528 101.751 44.8 101.271 45.088C100.823 45.376 100.327 45.648 99.7833 45.904C99.2713 46.16 98.8233 46.336 98.4393 46.432C98.1833 46.496 97.9753 46.544 97.8153 46.576C97.6873 46.576 97.4953 46.576 97.2393 46.576C96.8873 46.544 96.6153 46.496 96.4233 46.432C96.2633 46.368 96.0713 46.224 95.8473 46C95.4313 45.52 95.1753 44.816 95.0793 43.888L95.0312 43.312L94.6473 43.696C94.4553 43.92 94.1513 44.304 93.7353 44.848C93.3193 45.392 92.9033 45.968 92.4873 46.576C91.6553 47.728 90.9993 48.496 90.5193 48.88C90.0713 49.264 89.6393 49.376 89.2233 49.216C89.0633 49.152 88.9192 49.04 88.7912 48.88C88.6632 48.688 88.5512 48.496 88.4552 48.304C88.3912 48.144 88.3592 47.984 88.3592 47.824C88.3592 47.664 88.3592 47.328 88.3592 46.816C88.3592 46.304 88.3752 45.952 88.4072 45.76C88.4072 45.568 88.4552 45.28 88.5512 44.896C88.9032 43.552 89.3833 42.352 89.9913 41.296C90.6313 40.24 91.2713 39.536 91.9113 39.184C92.4233 38.96 92.9033 38.928 93.3513 39.088C93.7993 39.248 94.1513 39.568 94.4073 40.048C94.5033 40.272 94.5833 40.576 94.6473 40.96C94.7113 41.344 94.7433 41.696 94.7433 42.016V42.448L94.9353 42.4C95.0953 42.336 95.2393 42.352 95.3672 42.448C95.5273 42.512 95.6393 42.608 95.7033 42.736C95.7673 42.864 95.7993 43.008 95.7993 43.168C95.8313 43.296 95.8793 43.584 95.9433 44.032C96.0073 44.608 96.1033 45.04 96.2313 45.328C96.3593 45.584 96.5993 45.776 96.9513 45.904C97.1113 45.968 97.3513 45.984 97.6713 45.952C98.0233 45.888 98.3433 45.808 98.6313 45.712C98.8873 45.616 99.1913 45.488 99.5433 45.328C99.8953 45.168 100.247 45.008 100.599 44.848C100.983 44.656 101.335 44.464 101.655 44.272C102.007 44.08 102.279 43.92 102.471 43.792V43.744ZM93.7833 43.312L93.4953 42.88C93.4313 42.752 93.3353 42.592 93.2073 42.4C93.1113 42.208 93.0313 42.016 92.9673 41.824C92.8073 41.376 92.7113 41.152 92.6793 41.152C92.5833 41.184 92.4073 41.392 92.1513 41.776C91.9273 42.128 91.7033 42.496 91.4793 42.88C91.1273 43.552 90.8233 44.256 90.5673 44.992C90.3113 45.696 90.1193 46.336 89.9913 46.912C89.8953 47.36 89.8633 47.6 89.8953 47.632C89.9273 47.664 90.0873 47.536 90.3753 47.248C90.5353 47.088 90.7593 46.816 91.0473 46.432C91.3673 46.048 91.7033 45.664 92.0553 45.28C92.3753 44.928 92.6633 44.592 92.9193 44.272C93.2073 43.92 93.3993 43.696 93.4953 43.6L93.7833 43.312ZM104.562 40.96C103.986 41.856 103.474 42.64 103.026 43.312C102.61 43.984 102.37 44.352 102.306 44.416L102.114 44.656L102.498 44.464C102.594 44.4 102.738 44.304 102.93 44.176C103.154 44.016 103.362 43.888 103.554 43.792C104.834 42.928 105.986 42.256 107.01 41.776C108.034 41.264 108.818 41.008 109.362 41.008C109.682 41.008 109.938 41.088 110.13 41.248C110.354 41.408 110.578 41.696 110.802 42.112C111.058 42.528 111.314 42.816 111.57 42.976C111.826 43.104 112.178 43.168 112.626 43.168C112.85 43.168 113.058 43.168 113.25 43.168C113.474 43.136 113.73 43.088 114.018 43.024C114.306 42.928 114.658 42.816 115.074 42.688C115.49 42.56 116.018 42.4 116.658 42.208C117.778 41.856 118.53 41.648 118.914 41.584C119.33 41.488 119.538 41.504 119.538 41.632C119.538 41.696 119.202 41.856 118.53 42.112C118.274 42.208 117.922 42.336 117.474 42.496C117.058 42.624 116.706 42.752 116.418 42.88C115.554 43.2 114.85 43.424 114.306 43.552C113.794 43.648 113.234 43.696 112.626 43.696C111.986 43.696 111.506 43.632 111.186 43.504C110.898 43.376 110.562 43.056 110.178 42.544C109.922 42.256 109.746 42.08 109.65 42.016C109.586 41.92 109.474 41.872 109.314 41.872C108.93 41.872 108.338 42.096 107.538 42.544C106.738 42.992 105.586 43.744 104.082 44.8C103.474 45.248 102.978 45.6 102.594 45.856C102.21 46.112 101.89 46.304 101.634 46.432C101.378 46.56 101.186 46.64 101.058 46.672C100.898 46.672 100.754 46.64 100.626 46.576C100.466 46.512 100.338 46.4 100.242 46.24C100.114 46.048 100.05 45.84 100.05 45.616C100.05 45.264 100.226 44.672 100.578 43.84C100.93 43.008 101.378 42.128 101.922 41.2C102.018 41.04 102.098 40.896 102.162 40.768C102.226 40.608 102.242 40.512 102.21 40.48C102.178 40.416 102.194 40.32 102.258 40.192C102.354 40.064 102.45 40 102.546 40C102.578 40 102.658 39.904 102.786 39.712C102.946 39.52 103.106 39.296 103.266 39.04C103.842 38.144 104.61 37.008 105.57 35.632C106.53 34.256 107.522 32.848 108.546 31.408C109.602 29.936 110.626 28.528 111.618 27.184C112.61 25.84 113.426 24.768 114.066 23.968C115.09 22.688 116.066 21.568 116.994 20.608C117.922 19.616 118.658 18.944 119.202 18.592C119.49 18.4 119.778 18.288 120.066 18.256C120.354 18.192 120.562 18.224 120.69 18.352C120.786 18.48 120.834 18.688 120.834 18.976C120.834 19.232 120.754 19.504 120.594 19.792C120.242 20.592 119.602 21.68 118.674 23.056C117.778 24.4 116.706 25.872 115.458 27.472C114.242 29.072 112.914 30.72 111.474 32.416C110.066 34.08 108.69 35.632 107.346 37.072C107.122 37.328 106.786 37.76 106.338 38.368C105.922 38.976 105.346 39.84 104.61 40.96H104.562ZM108.834 34.288C108.706 34.576 109.074 34.208 109.938 33.184C110.61 32.448 111.33 31.584 112.098 30.592C112.898 29.6 113.682 28.592 114.45 27.568C115.218 26.544 115.954 25.536 116.658 24.544C117.362 23.52 117.954 22.624 118.434 21.856C118.786 21.28 119.09 20.752 119.346 20.272C119.634 19.76 119.762 19.488 119.73 19.456C119.698 19.392 119.57 19.472 119.346 19.696C119.154 19.888 118.818 20.256 118.338 20.8C117.89 21.344 117.426 21.92 116.946 22.528C116.498 23.104 115.986 23.776 115.41 24.544C114.866 25.312 114.258 26.192 113.586 27.184C112.946 28.144 112.21 29.264 111.378 30.544C110.706 31.568 110.13 32.448 109.65 33.184C109.17 33.888 108.914 34.272 108.882 34.336L108.834 34.288ZM160.92 34.576C158.936 35.888 157.048 36.944 155.256 37.744C153.496 38.544 151.656 39.184 149.736 39.664C148.776 39.92 147.96 40.096 147.288 40.192C146.616 40.288 145.864 40.336 145.032 40.336C144.808 40.368 144.6 40.384 144.408 40.384C144.248 40.384 144.088 40.384 143.928 40.384C143.768 40.384 143.624 40.4 143.496 40.432C143.368 40.72 143.24 41.04 143.112 41.392C142.984 41.68 142.84 42.032 142.68 42.448C142.52 42.832 142.36 43.248 142.2 43.696C142.008 44.144 141.784 44.688 141.528 45.328C141.304 45.936 141.048 46.592 140.76 47.296C140.504 48 140.232 48.72 139.944 49.456C139.688 50.16 139.448 50.816 139.224 51.424C138.616 52.992 138.104 54.32 137.688 55.408C137.272 56.528 136.92 57.472 136.632 58.24C136.344 59.008 136.088 59.648 135.864 60.16C135.64 60.704 135.432 61.184 135.24 61.6C135.08 62.048 134.904 62.48 134.712 62.896C134.52 63.312 134.312 63.776 134.088 64.288C133.768 64.96 133.512 65.488 133.32 65.872C133.128 66.288 132.968 66.608 132.84 66.832C132.744 67.056 132.664 67.216 132.6 67.312C132.536 67.408 132.488 67.456 132.456 67.456C132.264 67.552 132.008 67.52 131.688 67.36C131.239 67.2 131.095 66.816 131.255 66.208C131.287 65.984 131.399 65.584 131.591 65.008C131.751 64.432 131.928 63.808 132.12 63.136C132.344 62.464 132.568 61.792 132.792 61.12C133.048 60.48 133.256 59.952 133.416 59.536C133.544 59.216 133.704 58.512 133.896 57.424C134.12 56.336 134.36 55.008 134.616 53.44C134.872 51.84 135.064 50.48 135.192 49.36C135.32 48.208 135.384 47.136 135.384 46.144C135.384 45.12 135.304 44.112 135.144 43.12C134.984 42.128 134.744 40.976 134.424 39.664C134.264 38.992 134.12 38.432 133.992 37.984C133.896 37.536 133.816 37.152 133.752 36.832C133.72 36.48 133.688 36.176 133.656 35.92C133.656 35.632 133.656 35.312 133.656 34.96C133.656 33.968 133.768 33.04 133.992 32.176C134.248 31.312 134.648 30.32 135.192 29.2C135.896 27.824 136.776 26.464 137.832 25.12C138.92 23.744 140.152 22.416 141.528 21.136C142.904 19.824 144.408 18.576 146.04 17.392C147.704 16.208 149.448 15.104 151.272 14.08C151.528 13.92 151.704 13.792 151.8 13.696C151.896 13.6 151.992 13.472 152.088 13.312C152.376 12.768 152.68 12.64 153 12.928C153.064 12.992 153.128 13.024 153.192 13.024C153.288 13.024 153.48 12.944 153.768 12.784C155.08 12.208 156.392 11.68 157.704 11.2C159.048 10.72 160.28 10.352 161.4 10.096C163.48 9.552 165.432 9.248 167.256 9.184C169.112 9.12 170.744 9.296 172.152 9.712C173.464 10.096 174.52 10.672 175.32 11.44C176.12 12.208 176.616 13.12 176.808 14.176C177.032 15.264 176.904 16.56 176.424 18.064C176.04 19.248 175.368 20.544 174.408 21.952C173.448 23.36 172.28 24.784 170.904 26.224C169.528 27.664 167.992 29.104 166.296 30.544C164.6 31.952 162.808 33.28 160.92 34.528V34.576ZM142.632 38.128C142.76 38.128 143.416 36.72 144.6 33.904C145.528 31.76 146.28 29.984 146.856 28.576C147.464 27.136 147.96 25.92 148.344 24.928C148.76 23.936 149.096 23.104 149.352 22.432C149.608 21.728 149.864 21.04 150.12 20.368C150.28 19.888 150.456 19.344 150.648 18.736C150.872 18.128 151.064 17.552 151.224 17.008C151.416 16.432 151.56 15.952 151.656 15.568C151.784 15.184 151.832 14.992 151.8 14.992C151.8 14.96 151.688 15.008 151.464 15.136C151.272 15.232 151.016 15.376 150.696 15.568C150.376 15.728 150.024 15.92 149.64 16.144C149.288 16.368 148.952 16.592 148.632 16.816C146.808 18.032 145.096 19.344 143.496 20.752C141.928 22.128 140.536 23.536 139.32 24.976C138.104 26.416 137.096 27.856 136.296 29.296C135.528 30.736 135.016 32.096 134.76 33.376C134.664 33.824 134.6 34.24 134.568 34.624C134.568 34.976 134.568 35.376 134.568 35.824C134.6 36.24 134.664 36.736 134.76 37.312C134.856 37.856 134.984 38.528 135.144 39.328C135.432 40.736 135.624 41.856 135.72 42.688C135.816 43.52 135.896 44.384 135.96 45.28C135.992 46.432 135.944 47.744 135.816 49.216C135.688 50.688 135.448 52.352 135.096 54.208C135.032 54.624 134.968 54.976 134.904 55.264C134.872 55.584 134.855 55.76 134.855 55.792C134.855 55.856 135 55.552 135.288 54.88C135.576 54.24 135.944 53.456 136.392 52.528C136.584 52.048 136.808 51.52 137.064 50.944C137.352 50.336 137.624 49.744 137.88 49.168C138.136 48.56 138.392 47.968 138.648 47.392C138.936 46.816 139.176 46.304 139.368 45.856C140.2 44 140.824 42.592 141.24 41.632C141.688 40.64 141.912 40.128 141.912 40.096C141.912 40.064 141.736 39.952 141.384 39.76C140.392 39.28 139.8 38.528 139.608 37.504C139.544 37.216 139.528 36.896 139.56 36.544C139.592 36.192 139.672 35.888 139.8 35.632C139.896 35.376 140.056 35.216 140.28 35.152C140.536 35.088 140.76 35.136 140.952 35.296C141.048 35.392 141.096 35.488 141.096 35.584C141.128 35.648 141.144 35.936 141.144 36.448C141.144 36.8 141.16 37.04 141.192 37.168C141.224 37.296 141.288 37.408 141.384 37.504C141.48 37.664 141.672 37.824 141.96 37.984C142.248 38.144 142.456 38.208 142.584 38.176L142.632 38.128ZM144.84 38.272C145 38.24 145.24 38.208 145.56 38.176C145.88 38.112 146.184 38.048 146.472 37.984C148.872 37.504 151.448 36.64 154.2 35.392C156.952 34.144 159.784 32.544 162.696 30.592C165.768 28.576 168.376 26.528 170.52 24.448C172.664 22.368 174.184 20.416 175.08 18.592C175.432 17.92 175.656 17.344 175.752 16.864C175.88 16.384 175.944 15.84 175.944 15.232C175.944 14.784 175.928 14.48 175.896 14.32C175.864 14.128 175.816 13.92 175.752 13.696C174.856 11.36 172.28 10.192 168.024 10.192C164.632 10.192 160.808 11.024 156.552 12.688C156.296 12.784 155.976 12.912 155.592 13.072C155.24 13.232 154.872 13.392 154.488 13.552C154.136 13.712 153.816 13.856 153.528 13.984C153.272 14.112 153.128 14.192 153.096 14.224C153.032 14.352 152.984 14.48 152.952 14.608C152.888 14.736 152.84 14.896 152.808 15.088C152.808 15.248 152.776 15.408 152.712 15.568C152.424 16.56 152.008 17.84 151.464 19.408C150.92 20.976 150.28 22.72 149.544 24.64C148.904 26.368 148.344 27.856 147.864 29.104C147.384 30.32 146.984 31.36 146.664 32.224C146.344 33.088 146.072 33.792 145.848 34.336C145.656 34.88 145.496 35.312 145.368 35.632C145.208 36.08 145.048 36.512 144.888 36.928C144.728 37.312 144.616 37.584 144.552 37.744L144.359 38.272L144.936 38.176L144.84 38.272ZM175.461 41.776C175.653 41.776 175.733 41.84 175.701 41.968C175.669 42.064 175.589 42.176 175.461 42.304C175.365 42.336 174.981 42.512 174.309 42.832C173.637 43.152 172.885 43.504 172.053 43.888C171.253 44.24 170.485 44.592 169.749 44.944C169.013 45.264 168.549 45.472 168.357 45.568C166.629 46.368 165.205 46.928 164.085 47.248C162.997 47.568 162.117 47.68 161.445 47.584C160.485 47.424 159.845 46.944 159.524 46.144C159.172 45.312 159.252 44.384 159.764 43.36C160.053 42.784 160.501 42.272 161.109 41.824C161.717 41.344 162.245 41.104 162.693 41.104C163.269 41.104 163.637 41.36 163.797 41.872C163.861 42.032 163.893 42.16 163.893 42.256C163.893 42.352 163.861 42.512 163.797 42.736C163.637 43.248 163.333 43.776 162.885 44.32C162.437 44.832 161.989 45.2 161.541 45.424C161.093 45.648 161.125 45.84 161.637 46C162.341 46.16 163.397 46.048 164.805 45.664C166.245 45.28 168.245 44.544 170.805 43.456C171.797 43.04 172.741 42.656 173.637 42.304C174.565 41.952 175.125 41.76 175.317 41.728L175.461 41.776ZM162.213 42.88C162.021 43.072 161.797 43.392 161.541 43.84C161.317 44.256 161.205 44.544 161.205 44.704C161.205 44.864 161.429 44.704 161.877 44.224C162.037 44.064 162.213 43.808 162.405 43.456C162.597 43.104 162.693 42.848 162.693 42.688C162.693 42.592 162.661 42.56 162.597 42.592C162.565 42.624 162.453 42.72 162.261 42.88H162.213ZM187.878 43.744C188.23 43.488 188.406 43.456 188.406 43.648C188.406 43.776 188.23 43.984 187.878 44.272C187.558 44.528 187.158 44.8 186.678 45.088C186.23 45.376 185.734 45.648 185.19 45.904C184.678 46.16 184.23 46.336 183.846 46.432C183.59 46.496 183.382 46.544 183.222 46.576C183.094 46.576 182.902 46.576 182.646 46.576C182.294 46.544 182.022 46.496 181.83 46.432C181.67 46.368 181.478 46.224 181.254 46C180.838 45.52 180.582 44.816 180.486 43.888L180.438 43.312L180.054 43.696C179.862 43.92 179.558 44.304 179.142 44.848C178.726 45.392 178.31 45.968 177.894 46.576C177.062 47.728 176.406 48.496 175.926 48.88C175.478 49.264 175.046 49.376 174.63 49.216C174.47 49.152 174.325 49.04 174.197 48.88C174.069 48.688 173.957 48.496 173.861 48.304C173.797 48.144 173.765 47.984 173.765 47.824C173.765 47.664 173.765 47.328 173.765 46.816C173.765 46.304 173.781 45.952 173.813 45.76C173.813 45.568 173.861 45.28 173.957 44.896C174.309 43.552 174.79 42.352 175.398 41.296C176.038 40.24 176.678 39.536 177.318 39.184C177.83 38.96 178.31 38.928 178.758 39.088C179.206 39.248 179.558 39.568 179.814 40.048C179.91 40.272 179.99 40.576 180.054 40.96C180.118 41.344 180.15 41.696 180.15 42.016V42.448L180.342 42.4C180.502 42.336 180.646 42.352 180.773 42.448C180.934 42.512 181.046 42.608 181.11 42.736C181.174 42.864 181.206 43.008 181.206 43.168C181.238 43.296 181.286 43.584 181.35 44.032C181.414 44.608 181.51 45.04 181.638 45.328C181.766 45.584 182.006 45.776 182.358 45.904C182.518 45.968 182.758 45.984 183.078 45.952C183.43 45.888 183.75 45.808 184.038 45.712C184.294 45.616 184.598 45.488 184.95 45.328C185.302 45.168 185.654 45.008 186.006 44.848C186.39 44.656 186.742 44.464 187.062 44.272C187.414 44.08 187.686 43.92 187.878 43.792V43.744ZM179.19 43.312L178.902 42.88C178.838 42.752 178.742 42.592 178.614 42.4C178.518 42.208 178.438 42.016 178.374 41.824C178.214 41.376 178.118 41.152 178.086 41.152C177.99 41.184 177.814 41.392 177.558 41.776C177.334 42.128 177.11 42.496 176.886 42.88C176.534 43.552 176.23 44.256 175.974 44.992C175.718 45.696 175.526 46.336 175.398 46.912C175.302 47.36 175.27 47.6 175.302 47.632C175.334 47.664 175.494 47.536 175.782 47.248C175.942 47.088 176.166 46.816 176.454 46.432C176.774 46.048 177.11 45.664 177.462 45.28C177.782 44.928 178.07 44.592 178.326 44.272C178.614 43.92 178.806 43.696 178.902 43.6L179.19 43.312ZM202.4 41.536C202.592 41.536 202.688 41.6 202.688 41.728C202.72 41.824 202.64 41.904 202.448 41.968C202.384 42.032 202.176 42.16 201.824 42.352C201.504 42.544 201.168 42.768 200.816 43.024C199.888 43.664 199.184 44.064 198.704 44.224C198.224 44.352 197.808 44.32 197.456 44.128C197.264 44.032 197.072 43.84 196.88 43.552C196.688 43.232 196.56 42.896 196.496 42.544C196.464 42.384 196.432 42.208 196.4 42.016C196.368 41.824 196.32 41.648 196.256 41.488C196.192 41.136 196.096 40.96 195.968 40.96C195.744 40.96 195.36 41.184 194.816 41.632C194.272 42.08 193.632 42.672 192.896 43.408C192.192 44.144 191.44 44.992 190.64 45.952C189.84 46.88 189.088 47.824 188.384 48.784C188.032 49.232 187.696 49.68 187.376 50.128C187.088 50.576 186.88 50.88 186.752 51.04C186.528 51.328 186.304 51.568 186.08 51.76C185.856 51.952 185.664 52.048 185.504 52.048C185.472 52.048 185.328 51.984 185.072 51.856C184.88 51.792 184.736 51.632 184.64 51.376C184.576 51.248 184.544 51.104 184.544 50.944C184.544 50.784 184.608 50.528 184.736 50.176C184.832 49.824 185.008 49.328 185.264 48.688C185.52 48.048 185.888 47.152 186.368 46C186.592 45.488 186.832 44.912 187.088 44.272C187.344 43.6 187.552 43.056 187.712 42.64C188.032 41.776 188.272 41.184 188.432 40.864C188.592 40.512 188.784 40.256 189.008 40.096C189.424 39.84 189.824 39.904 190.208 40.288C190.304 40.384 190.368 40.48 190.4 40.576C190.432 40.672 190.448 40.848 190.448 41.104C190.448 41.264 190.432 41.456 190.4 41.68C190.368 41.872 190.288 42.128 190.16 42.448C190.064 42.736 189.92 43.104 189.728 43.552C189.568 44 189.344 44.56 189.056 45.232C188.928 45.488 188.816 45.744 188.72 46C188.656 46.224 188.592 46.416 188.528 46.576C188.432 46.768 188.352 46.96 188.288 47.152C188.352 47.056 188.448 46.944 188.576 46.816C188.672 46.72 188.768 46.592 188.864 46.432C188.96 46.272 189.088 46.112 189.248 45.952C190.944 43.84 192.336 42.288 193.424 41.296C194.544 40.304 195.424 39.808 196.064 39.808C196.512 39.808 196.832 39.968 197.024 40.288C197.248 40.608 197.424 41.184 197.552 42.016C197.648 42.624 197.728 43.024 197.792 43.216C197.888 43.376 198.048 43.44 198.272 43.408C198.368 43.376 198.544 43.312 198.8 43.216C199.088 43.088 199.36 42.944 199.616 42.784C200.32 42.4 200.928 42.096 201.44 41.872C201.952 41.648 202.288 41.552 202.448 41.584L202.4 41.536ZM214.35 41.968C214.446 42.096 214.478 42.208 214.446 42.304C214.414 42.4 214.318 42.448 214.158 42.448C214.062 42.448 213.79 42.592 213.342 42.88C212.894 43.136 212.366 43.472 211.758 43.888C211.182 44.304 210.558 44.768 209.886 45.28C209.214 45.76 208.606 46.224 208.062 46.672C207.71 46.96 207.438 47.232 207.246 47.488C207.054 47.712 206.782 48.08 206.43 48.592C205.534 49.904 204.59 51.088 203.598 52.144C202.606 53.232 201.79 53.936 201.149 54.256C200.829 54.416 200.637 54.496 200.573 54.496C200.477 54.528 200.349 54.496 200.189 54.4C200.061 54.304 199.997 54.176 199.997 54.016C199.997 53.824 200.141 53.536 200.429 53.152C200.685 52.768 201.037 52.304 201.486 51.76C201.966 51.216 202.526 50.624 203.166 49.984C203.806 49.312 204.51 48.624 205.278 47.92C205.598 47.632 205.854 47.408 206.046 47.248C206.238 47.056 206.382 46.896 206.478 46.768C206.574 46.64 206.654 46.528 206.718 46.432C206.782 46.304 206.862 46.16 206.958 46C207.374 45.008 207.406 44.304 207.054 43.888C206.83 43.664 206.446 43.536 205.902 43.504C205.39 43.44 204.606 43.488 203.55 43.648C202.846 43.776 202.318 43.84 201.966 43.84C201.614 43.84 201.309 43.776 201.053 43.648C200.669 43.456 200.445 43.12 200.381 42.64C200.317 42.16 200.429 41.632 200.717 41.056C200.877 40.736 201.101 40.384 201.389 40C201.678 39.584 201.982 39.2 202.302 38.848C202.622 38.464 202.926 38.128 203.214 37.84C203.534 37.552 203.79 37.376 203.982 37.312C204.526 37.12 204.958 37.248 205.278 37.696C205.438 37.984 205.47 38.24 205.374 38.464C205.31 38.656 205.022 39.008 204.51 39.52C204.35 39.712 204.142 39.952 203.886 40.24C203.662 40.528 203.438 40.832 203.214 41.152C202.99 41.44 202.798 41.696 202.638 41.92C202.478 42.144 202.398 42.272 202.398 42.304C202.398 42.368 202.526 42.416 202.782 42.448C203.038 42.448 203.614 42.48 204.51 42.544C205.502 42.608 206.19 42.688 206.574 42.784C206.99 42.848 207.31 42.976 207.534 43.168C208.11 43.648 208.302 44.336 208.11 45.232L208.014 45.568L209.31 44.656C210.142 44.016 210.894 43.472 211.566 43.024C212.27 42.576 212.782 42.272 213.102 42.112C213.742 41.856 214.158 41.84 214.35 42.064V41.968ZM202.926 51.28C203.054 51.184 203.166 51.088 203.262 50.992C203.358 50.864 203.438 50.768 203.502 50.704L203.742 50.464C203.71 50.464 203.598 50.544 203.406 50.704C203.246 50.864 203.054 51.056 202.83 51.28C202.606 51.536 202.414 51.744 202.254 51.904C202.094 52.064 202.03 52.144 202.062 52.144C202.158 52.08 202.254 52 202.35 51.904C202.414 51.84 202.494 51.76 202.59 51.664C202.686 51.536 202.798 51.408 202.926 51.28ZM229.419 40.672C229.835 40.864 229.579 40.96 228.651 40.96C227.915 40.96 227.003 41.056 225.915 41.248C224.859 41.408 223.451 41.696 221.691 42.112C220.795 42.336 220.251 42.48 220.059 42.544C219.899 42.576 219.819 42.656 219.819 42.784C219.755 43.04 219.627 43.408 219.435 43.888C219.275 44.336 219.131 44.688 219.003 44.944C218.779 45.36 218.507 45.808 218.187 46.288C217.867 46.768 217.531 47.216 217.179 47.632C216.827 48.048 216.475 48.416 216.123 48.736C215.803 49.056 215.531 49.264 215.307 49.36C215.051 49.488 214.795 49.552 214.539 49.552C214.283 49.552 214.059 49.52 213.867 49.456C213.483 49.264 213.179 48.912 212.955 48.4C212.859 48.176 212.795 47.84 212.763 47.392C212.731 46.944 212.747 46.448 212.811 45.904C212.843 45.328 212.923 44.736 213.051 44.128C213.147 43.488 213.275 42.88 213.435 42.304C213.659 41.568 213.979 41.2 214.395 41.2C214.459 41.2 214.555 41.152 214.683 41.056C214.811 40.96 214.955 40.832 215.115 40.672C215.563 40.224 216.091 39.904 216.699 39.712C217.339 39.52 217.931 39.472 218.475 39.568C218.827 39.632 219.131 39.84 219.387 40.192C219.643 40.544 219.803 40.976 219.867 41.488L219.915 41.92L221.835 41.536C222.379 41.44 222.987 41.344 223.659 41.248C224.331 41.12 224.891 41.008 225.339 40.912C226.267 40.752 227.131 40.656 227.931 40.624C228.731 40.56 229.211 40.56 229.371 40.624L229.419 40.672ZM218.235 43.792C218.331 43.6 218.411 43.44 218.475 43.312C218.539 43.152 218.555 43.056 218.523 43.024C218.491 42.992 218.363 42.992 218.139 43.024C217.947 43.024 217.723 43.056 217.467 43.12C217.179 43.152 216.891 43.184 216.603 43.216C216.315 43.216 216.107 43.216 215.979 43.216L215.451 43.264L215.307 43.888C215.211 44.272 215.115 44.688 215.019 45.136C214.923 45.584 214.827 46 214.731 46.384C214.667 46.768 214.619 47.104 214.587 47.392C214.587 47.68 214.603 47.872 214.635 47.968C214.667 48.16 214.891 48.096 215.307 47.776C215.531 47.616 215.771 47.392 216.027 47.104C216.315 46.784 216.587 46.432 216.843 46.048C217.131 45.664 217.387 45.28 217.611 44.896C217.867 44.48 218.075 44.096 218.235 43.744V43.792ZM218.667 42.256C218.795 42.192 218.859 42.144 218.859 42.112C218.891 42.048 218.891 41.888 218.859 41.632C218.827 41.28 218.747 41.056 218.619 40.96C218.491 40.832 218.283 40.768 217.995 40.768C217.739 40.768 217.387 40.864 216.939 41.056C216.523 41.216 216.187 41.408 215.931 41.632C215.739 41.824 215.659 42.016 215.691 42.208C215.723 42.464 215.867 42.608 216.123 42.64C216.187 42.64 216.331 42.624 216.555 42.592C216.779 42.56 217.035 42.528 217.323 42.496C217.611 42.464 217.883 42.432 218.139 42.4C218.395 42.336 218.555 42.288 218.619 42.256H218.667ZM246.913 42.064C247.329 41.584 247.537 41.472 247.537 41.728C247.537 41.824 247.265 42.128 246.721 42.64C246.177 43.152 245.537 43.744 244.801 44.416C244.065 45.056 243.313 45.68 242.545 46.288C241.809 46.896 241.217 47.344 240.769 47.632C239.361 48.592 238.241 48.816 237.409 48.304C236.897 47.984 236.593 47.424 236.497 46.624C236.401 46.048 236.481 45.328 236.737 44.464C236.993 43.568 237.441 42.448 238.081 41.104C238.337 40.592 238.545 40.16 238.705 39.808C238.865 39.424 238.945 39.216 238.945 39.184C238.945 39.056 238.849 39.008 238.657 39.04C238.465 39.072 238.129 39.216 237.649 39.472C236.529 40.048 235.201 41.008 233.665 42.352C232.161 43.664 230.609 45.216 229.009 47.008C228.689 47.392 228.401 47.712 228.145 47.968C227.889 48.224 227.729 48.368 227.665 48.4C227.505 48.464 227.361 48.432 227.233 48.304C227.105 48.24 227.041 48.176 227.041 48.112C227.009 48.048 226.993 47.936 226.993 47.776C227.025 47.68 227.105 47.44 227.233 47.056C227.361 46.672 227.521 46.256 227.713 45.808C228.321 44.336 228.753 43.152 229.009 42.256C229.265 41.328 229.393 40.528 229.393 39.856C229.393 38.704 229.809 38.128 230.641 38.128C231.185 38.128 231.569 38.384 231.793 38.896C231.857 39.088 231.873 39.296 231.841 39.52C231.809 39.744 231.665 40.096 231.409 40.576C231.313 40.8 231.169 41.12 230.977 41.536C230.817 41.92 230.657 42.288 230.497 42.64C230.337 42.992 230.177 43.36 230.017 43.744C229.857 44.128 229.745 44.4 229.681 44.56L229.441 45.232L230.689 43.984C231.425 43.248 232.081 42.624 232.657 42.112C233.233 41.568 233.873 41.04 234.577 40.528C235.505 39.792 236.369 39.216 237.169 38.8C238.001 38.384 238.641 38.144 239.089 38.08C239.345 38.08 239.505 38.096 239.569 38.128C239.633 38.128 239.745 38.208 239.905 38.368C240.065 38.528 240.177 38.72 240.241 38.944C240.337 39.168 240.353 39.456 240.289 39.808C240.257 40.16 240.145 40.608 239.953 41.152C239.793 41.696 239.569 42.384 239.281 43.216C239.057 43.824 238.881 44.336 238.753 44.752C238.625 45.136 238.513 45.456 238.417 45.712C238.353 45.968 238.305 46.192 238.273 46.384C238.241 46.544 238.225 46.688 238.225 46.816C238.225 47.264 238.369 47.504 238.657 47.536C238.977 47.536 239.505 47.36 240.241 47.008C240.689 46.784 241.249 46.464 241.921 46.048C242.625 45.6 243.217 45.184 243.697 44.8C243.921 44.608 244.193 44.384 244.513 44.128C244.865 43.84 245.185 43.568 245.473 43.312C245.793 43.024 246.081 42.768 246.337 42.544C246.625 42.32 246.817 42.144 246.913 42.016V42.064ZM248.123 49.936C248.475 49.936 248.763 50.096 248.987 50.416C249.243 50.704 249.339 51.056 249.275 51.472C249.243 51.728 249.163 52 249.035 52.288C248.907 52.576 248.763 52.848 248.603 53.104C248.443 53.392 248.251 53.632 248.027 53.824C247.835 54.048 247.659 54.192 247.499 54.256C247.275 54.352 247.115 54.4 247.019 54.4C246.955 54.4 246.843 54.368 246.683 54.304C246.043 54.112 245.723 53.52 245.723 52.528C245.723 51.792 245.835 51.248 246.059 50.896C246.283 50.512 246.651 50.24 247.163 50.08C247.323 50.016 247.499 49.968 247.691 49.936C247.883 49.904 248.027 49.888 248.123 49.888V49.936Z" fill="black"/>
</svg>
